# xmcd
#
# Track frame offsets:
# 182
# 23202
# 35710
# 57557
# 81422
# 93970
# 113450
# 131527
# 148462
# 165705
# 178265
# 188112
# 196457
# 214095
# 224520
# 261662
# 278682
#
# Disc length: 4008 seconds
#
#
# Revision: 3
# Processed by: cddbd v1.4PL0 Copyright (c) Steve Scherf et al.
# Submitted via: FreeRIP 2.52 
#
DISCID=100fa611
DTITLE=Αλεξίου, Χάρις - Ένα Φιλί Του Κόσμου
DYEAR=1997
DGENRE=Greek Artistic
TTITLE0=Για Ένα Tango
TTITLE1=Ζήτα Μου Ό,τι Θες
TTITLE2=Μουσικό Θέμα
TTITLE3=Συναυλία
TTITLE4=α. Φθινόπωρο β. Ξενητειά
TTITLE5=Η Μπαλλάντα Της Ιφιγένειας
TTITLE6=Σ' Έχασα
TTITLE7=Δεκατρείς Φωτιές
TTITLE8=Οι Δρόμοι
TTITLE9=Συ Μου Χάραξες Πορεία
TTITLE10=Αχ Χελιδόνι Μου
TTITLE11=Σύννεφα
TTITLE12=Μπαρμπαγιαννακάκης
TTITLE13=Πες Μου Πως Γίνεται
TTITLE14=Λυκαβηττός '93
TTITLE15=Κράτα Για Το Τέλος
TTITLE16=Το Τραγούδι Του Χελιδονιού
EXTD=
EXTT0=
EXTT1=
EXTT2=
EXTT3=
EXTT4=
EXTT5=
EXTT6=
EXTT7=
EXTT8=
EXTT9=
EXTT10=
EXTT11=
EXTT12=
EXTT13=
EXTT14=
EXTT15=
EXTT16=
PLAYORDER=
